<svg width="35" height="48" viewBox="0 0 35 48" fill="none" xmlns="http://www.w3.org/2000/svg">
<path id="Vector" d="M15.8513 0.629603C15.1346 0.649231 14.427 0.709283 13.7199 0.814229C12.6726 0.919368 11.627 1.44526 10.4752 1.97076C9.00884 2.60121 7.54113 3.23127 6.17958 3.33641C3.87526 4.072 3.14228 5.12243 2.51371 5.96316C2.51371 6.0681 2.40911 6.17285 2.40911 6.17285C1.57134 7.85392 1.46519 9.53499 1.77957 11.2164C2.09356 12.2673 2.51294 13.2147 2.82713 14.1604C3.5603 16.157 4.29502 18.0486 4.60921 20.2553C4.9234 20.8858 5.23585 21.7267 5.44524 22.5674C5.96902 24.2487 6.49513 26.1401 8.06607 27.611L8.07711 27.6056C8.11101 27.6412 8.13542 27.6808 8.17048 27.716C8.18443 27.709 8.19779 27.7037 8.21174 27.6967L8.17048 26.56C9.42743 24.6685 11.2064 23.4076 13.7201 22.8821C14.7264 22.6697 15.8141 22.5912 16.9405 22.6337C18.1146 22.6652 19.2823 22.8187 20.4248 23.0918C23.2527 23.8274 25.4515 25.2991 25.5565 26.56C25.6094 27.2498 25.6336 27.9111 25.6196 28.5742C25.6177 28.6986 25.6107 28.8239 25.6061 28.9493L25.8699 29.0818C26.0152 29.0089 26.1457 28.8739 26.2687 28.7122C26.2703 28.7102 26.2742 28.7067 26.2742 28.7067C26.2776 28.7023 26.2817 28.6949 26.2852 28.6902C26.3619 28.5861 26.4299 28.45 26.4996 28.3149C26.536 28.2417 26.5717 28.1466 26.6069 28.0639C27.0037 27.1656 27.3082 25.8219 27.6491 24.2479C27.7539 23.7226 27.8606 23.3026 27.9654 22.8823C28.8034 20.9907 29.954 19.3099 31.1059 17.7337C32.9913 15.1066 34.7724 12.6882 34.5628 9.85099C31.1071 3.12516 26.2881 2.07396 23.7744 1.54865C23.3554 1.44351 23.1481 1.4439 22.8338 1.33876C20.2416 0.865924 18.0016 0.570328 15.8513 0.629603ZM25.6196 28.5742C25.6302 27.9371 25.609 27.2995 25.5563 26.6646C25.4515 25.2984 23.2527 23.8272 20.3201 23.0914C19.1811 22.8317 18.0415 22.6753 16.9405 22.6337C15.8964 22.6071 14.876 22.6817 13.9289 22.8817C11.52 23.4072 9.63605 24.6683 8.4839 26.5596L8.58288 29.3407C9.87528 28.6492 11.939 27.6408 14.6633 27.3984C14.7915 27.387 14.9283 27.387 15.0592 27.3792C15.2872 27.3539 15.5758 27.2937 15.92 27.2937C19.0339 27.2937 22.2507 28.3307 25.3665 30.497C25.442 29.9638 25.4848 29.4301 25.504 28.8968L25.5892 28.9409C25.5946 28.82 25.6171 28.6947 25.6196 28.5742ZM15.8486 0.734354C16.0886 0.727746 16.3402 0.753788 16.5827 0.756509C16.1372 0.752233 15.694 0.761562 15.2518 0.786826C15.4513 0.774971 15.6483 0.739795 15.8486 0.734354ZM16.8138 0.764671C18.083 0.791879 19.3814 0.902849 20.7629 1.11507C19.4391 0.923255 18.1196 0.790324 16.8138 0.764671ZM14.2672 0.872337C14.1199 0.889245 13.9714 0.898185 13.8245 0.919174C12.2424 1.14597 10.3878 2.28249 8.49765 2.95006C9.18433 2.69294 9.88128 2.37539 10.5794 2.07532C11.6268 1.54982 12.7774 1.02431 13.7199 0.919174C13.9018 0.89216 14.0853 0.893326 14.2672 0.872337ZM13.8245 1.33876C14.1387 1.33876 14.5581 1.33837 14.8723 1.44351C14.5963 1.37413 14.3696 1.39298 14.1544 1.41591C14.364 1.4314 14.5703 1.47594 14.7677 1.54826C15.8904 3.49403 13.9417 11.8078 13.4532 17.3857C13.7552 19.3827 14.0611 21.2653 14.3497 22.672C12.9881 19.2043 11.6248 13.1084 11.4154 8.38001C11.3108 6.48846 11.4174 4.80681 11.8362 3.54592C12.2553 2.28502 12.8818 1.4439 13.8245 1.33876ZM19.8993 1.86543C18.3284 5.96374 18.1203 13.7382 18.0155 16.1551C17.9109 17.2059 18.0154 19.5172 18.1201 21.1987C18.1201 21.619 18.2247 22.0392 18.2247 22.4596C18.2247 22.0392 18.1201 21.7238 18.1201 21.3036C17.2822 14.9987 16.2335 7.43492 19.8993 1.86543ZM26.3923 2.59946C25.8685 6.80272 23.6713 8.80095 22.9382 12.8993C22.7288 16.1568 22.3086 19.9388 22.204 23.1963C22.0992 19.9388 22.2027 16.4719 22.7265 13.0042C23.25 9.4314 24.4022 5.85704 26.3923 2.59946ZM6.28379 3.44097C5.59014 3.67302 5.05958 3.92294 4.62277 4.18045C5.07159 3.91653 5.59052 3.66233 6.28379 3.44097ZM6.69077 3.8246C7.1082 3.82946 7.53997 3.96725 7.85416 4.28267C7.84118 4.2749 7.83905 4.27626 7.82665 4.26887C8.08448 4.44942 8.34307 4.67563 8.5883 5.01651C8.19392 6.89639 9.08283 10.9084 8.6654 14.0912C8.8132 17.1006 8.80428 20.2721 10.31 22.7577C8.41242 19.8218 8.03198 16.0772 7.74956 12.5819C7.53106 10.4622 7.35537 8.50672 6.85038 6.93954C6.57145 6.34737 6.33048 5.82303 6.10791 5.34203C6.06006 5.27032 6.02132 5.18967 5.97038 5.12146C5.76079 4.91118 5.65677 4.59751 5.65677 4.38742C5.65677 4.28248 5.76118 4.07297 5.86597 4.07297C5.97057 3.96783 6.179 3.9655 6.28379 3.86036C6.41784 3.83427 6.55424 3.82228 6.69077 3.8246ZM4.08369 5.01651C3.96669 5.05557 3.9049 5.09619 3.81154 5.13506C4.15401 5.06898 4.51217 5.20094 4.81803 5.75307C4.45444 7.48583 5.66336 12.2995 5.64864 15.6723C6.25377 19.2634 6.71324 23.1542 8.6929 25.6134C6.38859 22.9863 5.4466 18.3628 4.71362 14.4748C4.08485 11.4275 3.56088 8.80115 2.51352 7.96042C2.40892 7.75033 2.30451 7.64364 2.30451 7.43356C2.30451 7.11833 2.30412 6.69777 2.51352 6.27741C1.97657 7.50896 1.72959 8.74032 1.79565 9.97187C1.70945 8.71117 1.96165 7.46387 2.51352 6.27741C2.51352 6.17246 2.61812 6.17285 2.61812 6.06771C2.64136 6.03662 2.67894 5.99989 2.70335 5.9684C2.82306 5.77736 2.95671 5.60109 3.14054 5.46894C3.24843 5.34942 3.32747 5.23748 3.44853 5.11582C3.34664 5.22368 3.27962 5.32804 3.18994 5.4359C3.24282 5.40092 3.29124 5.36438 3.35226 5.33387C3.56166 5.12359 3.7695 5.01651 4.08369 5.01651ZM3.35226 5.33387C3.3449 5.34845 3.33754 5.35544 3.33018 5.36963C3.35439 5.35039 3.37705 5.32921 3.40185 5.31172C3.38751 5.31891 3.36659 5.32668 3.35226 5.33387ZM31.9447 7.53831C31.9414 7.54841 31.9369 7.55852 31.9336 7.56862C32.0069 7.55891 32.0791 7.535 32.1535 7.53831C32.0803 7.53403 32.0057 7.55832 31.9307 7.57698C30.2583 12.7111 28.2747 17.8468 26.2904 22.981L26.2875 22.9864C26.1182 23.8905 25.8343 24.7048 25.2425 25.2987C26.0805 24.3529 26.1827 22.9847 26.2875 21.3034C26.3921 19.7273 26.3929 18.046 27.2309 16.3646C27.2309 16.2614 27.2332 16.159 27.3326 16.0556L27.3355 16.0501C27.5239 15.3653 27.7268 14.7121 27.9487 14.0717C28.759 11.5655 30.1562 7.92019 31.8482 7.5797C31.8798 7.5696 31.9143 7.54472 31.9447 7.53831ZM10.2633 32.1276L9.63606 32.3373C9.95044 32.7576 10.1583 33.0738 10.3677 33.1788C10.5771 33.2837 10.7876 33.3887 11.1018 33.3887C11.2066 33.3887 11.4152 33.3887 11.52 33.2837L13.0929 32.7594C13.1977 32.7594 13.3017 32.6544 13.4065 32.6544C13.6159 32.6544 13.7196 32.6544 13.9289 32.7594L14.4543 33.2837L14.9767 33.1788C14.7673 32.8635 14.4547 32.5499 14.2453 32.4449C14.0357 32.3398 13.8251 32.2323 13.5111 32.2323H13.3019L11.6244 32.8643H11.311C11.1014 32.8643 10.8932 32.8643 10.7884 32.7594C10.6838 32.6544 10.4729 32.4428 10.2633 32.1276ZM5.23604 33.179C4.71246 33.494 3.9789 34.0193 2.93153 34.4397C1.88417 34.86 1.04601 35.2802 0.627024 35.7006C0.20804 36.1209 0 36.5413 0 36.9615C0 37.1717 0.10402 37.2786 0.313415 37.3836C0.418016 37.4887 0.629542 37.4883 0.734143 37.5935C2.20049 38.2239 3.66548 38.9576 5.02704 39.693C5.23662 39.7981 5.44757 40.0101 5.55236 40.1153C5.65696 40.2202 5.76118 40.2202 5.86578 40.2202C6.07537 40.2202 6.38781 40.1157 6.5974 39.9054C6.8068 39.6955 6.91353 39.4836 6.91353 39.2738C6.91353 39.0635 6.80699 38.9593 6.5974 38.8544C6.5974 38.8544 5.75905 38.4336 4.2927 37.803C3.35013 37.3828 2.51468 36.9622 1.9909 36.647C2.30529 36.1215 2.93231 35.7015 3.87488 35.2812C4.92224 34.8608 5.65619 34.4404 5.97038 34.1252C6.07498 34.0201 6.07498 33.9157 6.07498 33.8106C6.07498 33.7056 5.97057 33.4936 5.86578 33.3885C5.76118 33.2835 5.55004 33.1788 5.34064 33.1788L5.23604 33.179ZM27.0221 33.179C26.9175 33.179 26.7086 33.2833 26.604 33.3885C26.4992 33.5986 26.3923 33.7056 26.3923 33.8106V33.9155C26.7065 34.2307 27.1278 34.4393 27.7562 34.6494C28.28 34.7543 28.8028 34.9665 29.3266 35.0715C29.9549 35.2818 30.3739 35.5948 30.5833 36.0152V36.1227C30.5833 36.2278 30.3726 36.4367 29.9536 36.647C29.744 36.752 29.325 37.0682 28.8012 37.4885C28.2777 37.8038 27.9633 38.1174 27.6491 38.2224C27.2301 38.4326 26.9176 38.6441 26.813 38.8544C26.7083 38.9593 26.7084 39.0637 26.7084 39.1688C26.7084 39.3789 26.8129 39.3781 26.9176 39.5882C27.0222 39.7983 27.2307 39.8006 27.3355 39.8006C27.4401 39.8006 27.5443 39.693 27.6491 39.693C28.1727 39.3777 28.9066 38.958 29.7446 38.2224C30.6872 37.487 31.4211 36.9622 31.8401 36.647C32.2591 36.4367 32.4671 36.2255 32.4671 35.9105C32.4671 35.8053 32.4675 35.596 32.2581 35.4909C31.5249 34.6503 30.4789 34.1262 29.222 33.7058C29.0126 33.6007 28.6982 33.4936 28.0698 33.3885C27.7556 33.2835 27.4405 33.1788 27.2311 33.1788L27.0221 33.179ZM21.2607 34.7543C20.7369 34.7543 20.3181 34.8612 20.0039 35.1764C19.5849 35.4916 19.4811 36.0166 19.5859 36.647C19.5859 37.1723 19.7941 37.5925 20.1083 38.0127C20.4225 38.433 20.8417 38.6447 21.2607 38.6447C21.5749 38.6447 21.7852 38.5372 22.0994 38.4321C22.623 38.1168 22.8336 37.5927 22.8336 36.647C22.8336 35.9114 22.6224 35.3867 22.3084 35.0715C21.9942 34.8614 21.6799 34.7543 21.2607 34.7543ZM12.5678 34.8593C12.044 34.8593 11.6252 34.9661 11.311 35.2812C10.892 35.5964 10.788 36.1213 10.893 36.7518C10.893 37.2773 11.1012 37.6973 11.4154 38.1176C11.7296 38.538 12.1488 38.7494 12.5678 38.7494C12.882 38.7494 13.0923 38.6421 13.4065 38.537C13.9301 38.2218 14.138 37.6974 14.138 36.7518C14.138 35.9112 13.9297 35.3865 13.6155 35.1764C13.3013 34.9661 12.9868 34.8593 12.5678 34.8593ZM12.5678 36.1227C12.882 36.1227 13.0929 36.3318 13.0929 36.647C13.0929 36.9622 12.7772 37.1712 12.5678 37.1712C12.2536 37.1712 12.0452 36.9622 12.0452 36.647C12.0452 36.3318 12.2536 36.1227 12.5678 36.1227ZM21.0517 36.2276C21.3659 36.2276 21.5768 36.4365 21.5768 36.7518C21.5768 36.962 21.3657 37.2761 21.0517 37.2761C20.7375 37.2761 20.5291 37.067 20.5291 36.7518C20.5291 36.4365 20.7375 36.2276 21.0517 36.2276ZM15.8154 40.325L16.129 40.9541C16.2337 41.1641 16.3375 41.2708 16.5471 41.4809C16.6517 41.5859 16.8628 41.7956 17.0724 41.7956H17.2812C17.4908 41.7956 17.5946 41.7956 17.6992 41.6906C17.804 41.5857 18.0154 41.5861 18.1201 41.4809L18.4336 41.1665C18.5382 41.0615 18.6428 40.9542 18.6428 40.8491C18.7474 40.7442 18.7468 40.6396 18.8516 40.5347C18.8516 40.4295 18.9562 40.3248 18.9562 40.3248C18.8514 40.535 18.6428 40.7438 18.5382 40.9541C18.3286 41.059 18.2251 41.2712 18.0155 41.2712C17.8061 41.3764 17.5952 41.3762 17.3858 41.3762C17.1764 41.3762 16.968 41.3764 16.8634 41.2712C16.6538 41.2712 16.5473 41.1667 16.4425 41.0615L16.129 40.7444C16.0244 40.6392 15.9202 40.4299 15.8154 40.325ZM14.138 42.3224C11.9384 42.3224 10.5782 45.264 7.43614 42.6371C6.59818 47.786 12.7791 48.2069 15.3974 46.0004C17.178 44.4242 16.6517 42.2175 14.138 42.3224ZM19.6903 42.3224C17.1766 42.2175 16.653 44.4242 18.4336 46.0004C21.0521 48.2071 27.2301 47.786 26.3923 42.6371C23.2502 45.264 21.9946 42.3224 19.6903 42.3224Z" fill="white"/>
</svg>
